<svg width="41" height="47" viewBox="0 0 41 47" fill="none" xmlns="http://www.w3.org/2000/svg">
<g clip-path="url(#clip0_1_8)">
<path fill-rule="evenodd" clip-rule="evenodd" d="M33.5708 39.9906C34.1068 40.0839 34.6397 40.027 35.1282 39.8238C35.6316 39.6145 36.0735 39.2557 36.4175 38.777C36.7615 38.2983 36.9977 37.7132 37.1066 37.07C37.2141 36.4352 37.1945 35.7618 37.0496 35.1037C36.4426 32.0064 35.3506 27.238 33.6468 22.4503C31.9516 17.6869 29.5925 12.7356 26.3879 9.44582C23.0248 5.87575 19.2858 4.87226 16.0681 4.93706C12.8718 5.00177 10.1237 6.1172 8.59337 6.88786C8.16603 7.09056 7.77804 7.38233 7.44474 7.75C11.9792 15.2703 18.8466 23.053 27.5836 29.0959C28.2913 29.5855 28.6027 30.6426 28.279 31.4572C27.9553 32.2718 27.1191 32.5353 26.4114 32.0457C17.8477 26.1226 10.9571 18.5715 6.15787 11.0574C5.84185 13.1103 5.56943 16.1493 5.96585 19.4702C6.43542 23.4036 7.85497 27.7987 11.2851 31.3529C14.4566 34.6478 18.8248 36.6697 22.9244 37.9337C27.0307 39.1997 31.0142 39.7483 33.5708 39.9906Z" fill="#297126"/>
</g>
<defs>
<clipPath id="clip0_1_8">
<rect width="31" height="39" fill="white" transform="translate(40.4009 38.4818) rotate(165.453)"/>
</clipPath>
</defs>
</svg>
