<svg width="39" height="31" viewBox="0 0 39 31" fill="none" xmlns="http://www.w3.org/2000/svg">
<g clip-path="url(#clip0_1_8)">
<path fill-rule="evenodd" clip-rule="evenodd" d="M0.25513 24.0099C0.0301246 24.5053 -0.0486125 25.0354 0.0253401 25.5593C0.101563 26.0991 0.337829 26.617 0.714803 27.0702C1.09178 27.5234 1.59872 27.899 2.19401 28.166C2.7814 28.4294 3.43816 28.5796 4.1116 28.6046C7.26208 28.795 12.1518 28.9357 17.2141 28.489C22.2505 28.0446 27.6356 27.0047 31.6248 24.7291C35.9251 22.3705 37.8356 19.0034 38.581 15.8726C39.3212 12.7625 38.9317 9.82233 38.5702 8.14746C38.4813 7.68291 38.2963 7.23407 38.0242 6.81912C29.606 9.3194 20.348 14.0119 12.3043 20.951C11.6527 21.5131 10.5512 21.5489 9.84407 21.031C9.13692 20.5131 9.09187 19.6376 9.74345 19.0755C17.6276 12.274 26.6674 7.50089 35.146 4.74278C33.2383 3.92128 30.3651 2.89429 27.0511 2.44391C23.1259 1.91049 18.5151 2.18063 14.2133 4.60815C10.2275 6.85034 7.17321 10.5707 4.9201 14.2214C2.6633 17.8781 1.13175 21.5961 0.25513 24.0099Z" fill="#297126"/>
</g>
<defs>
<clipPath id="clip0_1_8">
<rect width="31" height="39" fill="white" transform="matrix(0 -1 1 0 0 31)"/>
</clipPath>
</defs>
</svg>
