<svg width="26" height="34" viewBox="0 0 26 34" fill="none" xmlns="http://www.w3.org/2000/svg">
<path fill-rule="evenodd" clip-rule="evenodd" d="M4.76461 0.222421C4.28521 0.0262624 3.77217 -0.0423802 3.26524 0.0220913C2.74276 0.0885419 2.24159 0.294518 1.80304 0.623162C1.36446 0.951808 1.00099 1.39376 0.742621 1.91273C0.487685 2.42481 0.342336 2.99737 0.318121 3.58447C0.133876 6.33104 -0.00224443 10.5939 0.430021 15.0071C0.860093 19.3979 1.86646 24.0926 4.06864 27.5704C6.3511 31.3193 9.60959 32.9849 12.6395 33.6347C15.6492 34.28 18.4945 33.9405 20.1154 33.6253C20.5649 33.5478 20.9993 33.3865 21.4009 33.1493C18.9812 25.8104 14.4401 17.7393 7.72482 10.7268C7.18086 10.1588 7.14619 9.19851 7.6474 8.58201C8.14861 7.96552 8.99588 7.92625 9.53984 8.49429C16.122 15.3677 20.7411 23.2485 23.4102 30.6401C24.2052 28.977 25.1991 26.4722 25.6349 23.583C26.1511 20.161 25.8897 16.1414 23.5405 12.3911C21.3706 8.91626 17.7703 6.25357 14.2373 4.28932C10.6986 2.32186 7.10056 0.986653 4.76461 0.222421Z" fill="#297126"/>
</svg>
